<?xml version="1.0" encoding="UTF-8"?>
<!DOCTYPE svg PUBLIC "-//W3C//DTD SVG 1.1//EN" "http://www.w3.org/Graphics/SVG/1.1/DTD/svg11.dtd">
<svg width="612" height="124.921" viewBox="0 333.543 612 124.921" version="1.1" xmlns="http://www.w3.org/2000/svg">
    <title>Silicon Studio logo</title>
    <path fill="#6a6d70" d="M444.605 398.29h-1.641c-2.118 3.779-4.526 6.923-7.322 9.442-3.416 3.074-6.884 4.635-10.313 4.635h-.161l-.609 3.023h7.124c-.087.443-6.656 32.811-6.656 32.811-.264 1.284-.396 2.385-.396 3.339 0 3.035 1.392 4.476 4.563 5.144 3.068.651 5.582.598 9.748.52l1.836-.039.588-3.272-.211-.009c-3.35-.229-5.099-.601-5.818-1.26-.63-.564-.945-1.464-.945-2.766 0-.756.114-1.656.315-2.699 0 0 6.116-30.184 6.448-31.771h6.125l.609-3.023h-6.125c.081-.43 2.841-14.075 2.841-14.075zm39.008 14.079l-.608 3.023h3.473c-.087.444-6.703 33.105-6.703 33.105-3.918 3.681-7.745 5.601-11.317 5.601-2.544 0-4.457-.768-5.69-2.292-2.03-2.492-2.394-7.069-1.064-13.62l5.24-25.817H453.99l-.617 3.023h3.485c-.097.441-4.644 22.926-4.644 22.926-.405 1.938-.597 3.74-.597 5.414 0 3.293.786 6.056 2.304 8.255 2.436 3.482 6.607 5.249 12.424 5.249 4.376 0 8.603-1.506 12.562-4.416-.132.676-.678 3.348-.678 3.348h12.949l.617-3.054h-3.477c.088-.44 8.249-40.745 8.249-40.745h-12.954zm63.568-19.883h-14.014l-.692 3.422h4.108c-.087.435-3.572 18.021-3.686 18.591-2.382-2.215-5.855-3.363-10.385-3.363-12.283 0-20.078 7.775-23.192 23.1-1.703 8.407-.98 14.604 2.133 18.416 2.522 3.096 6.665 4.655 12.283 4.655 4.217 0 7.976-1.118 11.197-3.272-.108.576-.459 2.334-.459 2.334h12.76l.692-3.423h-2.963c.076-.446 12.218-60.46 12.218-60.46zm-38.072 42.047c1.901-9.383 5.519-15.781 10.731-18.996 1.065-.639 2.127-.979 3.186-1.008 4.076-.1 7.43 1.652 8.966 4.68-.045 0-6.098 30.081-6.098 30.081-.591 1.312-4.509 4.736-10.147 4.767-.723.006-1.449-.15-2.163-.459-5.082-2.229-6.581-8.651-4.475-19.065zm41.756-22.139l-.621 3.048h3.695c-.087.443-7.577 37.428-7.64 37.715h-3.687l-.621 3.036h17.775l.614-3.036h-4.598c.084-.438 8.252-40.763 8.252-40.763h-13.169zm15.747-17.616c-.408-.495-.921-.885-1.5-1.161-.603-.282-1.271-.423-2.03-.423-.741 0-1.481.138-2.187.417l-1.935 1.14-1.509 1.674c-.408.626-.696 1.311-.837 2.052-.078.362-.114.711-.114 1.049 0 .357.036.696.114 1.021.168.645.446 1.212.846 1.698.417.5.921.896 1.509 1.172.594.276 1.271.417 2.03.417.75 0 1.491-.141 2.181-.417l1.94-1.143 1.509-1.671c.414-.633.696-1.316.837-2.058.15-.726.15-1.416 0-2.063-.159-.639-.459-1.207-.854-1.704zm42.34 21.434c-2.654-3.245-7.103-4.896-13.225-4.896-14.814 0-23.885 7.712-26.963 22.923-1.688 8.306-.972 14.431 2.124 18.206 2.57 3.141 6.82 4.733 12.654 4.733 8.222 0 14.542-1.781 18.747-5.288 4.221-3.512 7.192-9.424 8.843-17.583 1.665-8.205.925-14.291-2.18-18.095zm-12.169 30.928c-2.787 4.358-6.389 6.566-11.012 6.764-4.175.177-6.916-2.153-7.934-6.739-.785-3.411-.668-7.67.333-12.649 1.044-5.162 2.648-9.514 4.767-12.937 2.789-4.563 6.17-6.71 10.939-6.988 4.613-.258 7.042 1.854 8.116 7.063.762 3.527.63 7.855-.387 12.867-.991 4.931-2.615 9.172-4.822 12.619zm-193.769-54.981c-5.78-.045-10.679 1.224-15.396 3.992-5.09 2.987-8.27 7.175-9.458 12.46-1.463 6.581.333 11.425 5.486 14.8.027.015 14.884 7.004 14.884 7.004 5.225 2.639 7.369 6.286 6.353 10.837-.87 3.962-3.158 7.204-6.758 9.655-3.44 2.372-7.385 3.563-11.77 3.527-3.345-.027-8.048-1.446-10.265-3.102-2.391-1.812-3.519-4.19-3.329-7.085 0-.012.282-4.592.282-4.592l-4.271-.03-1.908 9.17c3.572 5.944 11.707 9.595 21.255 9.667 6.125.045 11.82-1.35 16.923-4.157 5.801-3.188 9.355-7.574 10.57-13.036 1.035-4.619.149-8.791-2.609-12.405-2.568-3.339-7.043-6.116-13.273-8.272-4.127-1.42-6.958-2.855-8.674-4.412-2.391-2.127-3.168-5.127-2.319-8.918.688-3.099 2.535-5.883 5.489-8.279 3.068-2.495 5.858-3.593 9.053-3.569 1.176.012 4.157.111 6.512.834s4.907 2.006 5.33 3.237l.036-.03.642 6.059.162.015 3.549.024 2.469-10.501-.192-.045c-6.925-1.672-14.461-2.818-18.773-2.848z"/>
    <path fill="#6a6d70" d="M159.639 410.895l-8.902 45.78h7.906l8.902-45.78zm11.347-17.278h-8.003l-1.88 9.559h7.993zm9.097 0l-12.334 63.058h7.907l12.322-63.058zm4.658 63.058h7.907l8.902-45.78h-7.897zm12.256-63.058l-1.889 9.559h7.993l1.881-9.559zm33.042 23.24c5.763 0 9.397 3.314 9.476 8.641v.22h7.906l-.009-.231c-.504-10.234-6.539-15.648-17.46-15.648-6.767 0-12.67 2.369-17.082 6.852-5.09 5.162-7.934 12.915-7.816 21.263.177 12.754 6.988 19.775 19.182 19.775 10.633 0 18.168-5.843 20.682-16.044l.068-.275H237.1l-.054.152c-2.108 5.729-6.935 9.151-12.906 9.151-9.581 0-11.125-7.996-11.197-12.769-.087-6.233 2.259-12.553 6.14-16.482 2.963-3.007 6.766-4.605 10.956-4.605zm47.89-7.019c-6.668 0-12.562 2.408-17.061 6.977-5.268 5.337-8.216 13.271-8.093 21.753.162 11.452 8.048 19.16 19.616 19.16 6.555 0 12.343-2.366 16.753-6.851 5.291-5.366 8.257-13.398 8.125-22.046-.167-12.247-7.039-18.993-19.34-18.993zm-4.841 40.874c-7.667 0-12.31-4.571-12.415-12.237-.087-6.351 2.444-13.093 6.467-17.166 2.913-2.952 6.389-4.451 10.36-4.451 7.331 0 11.779 4.703 11.884 12.585.078 5.091-1.907 12.311-6.503 16.98-2.798 2.844-6.098 4.289-9.793 4.289zm57.929-40.874c-6.353 0-12.229 2.871-15.892 7.646.168-.879 1.264-6.59 1.264-6.59h-7.641l-8.992 45.783h7.907l4.934-25.262c.72-2.834 2.001-6.907 4.79-9.349 2.937-3.171 7.244-5.208 11.002-5.208 3.705 0 7.694 1.602 7.767 6.102.018 1.442-.559 4.961-.951 6.968l-5.462 26.749h7.925l5.171-26.05c.771-3.608 1.227-7.017 1.199-8.909-.12-7.992-4.385-11.88-13.021-11.88zm-198.632 11.941l-7.606-2.777c-5.585-2.094-9.221-3.902-8.675-9.607.724-7.745 9.38-9.814 14.374-9.814 7.463 0 11.497 2.592 12.352 7.91l.036.188h8.566l-.027-.243c-.813-9.586-8.389-15.31-20.273-15.31-10.888 0-22.402 5.444-23.543 17.601-.749 7.901 3.23 13.223 12.143 16.275l7.685 2.778c6.185 2.255 9.91 4.076 9.316 10.372-.768 10.06-10.175 11.56-15.724 11.56-5.534 0-9.557-1.221-11.965-3.632-1.904-1.899-2.858-4.613-2.858-8.051v-.223h-8.561l-.009.211c-.3 5.432 1.104 9.816 4.166 13.047 3.785 3.996 10.084 6.107 18.237 6.107 5.312 0 22.853-1.368 25.153-18.972 1.109-11.832-5.135-14.886-12.787-17.42z"/>
    <path fill="#d16c15" d="M67.2 333.543c-3.743 9.61-21.419 11.249-31.717 17.454-10.312 6.206-13.083 13.504-13.083 19.2 0 5.798 3.73 8.153 3.73 8.153l9.434-.012c-.908-4.064-.194-9.502 7.445-14.172 3.239-1.979 7.478-2.115 7.478-2.115-4.383-2.375-16.44-.795-20.622 5.096.582-4.547 7.463-11.32 18.657-11.32 11.215 0 14.938-7.352 14.938-7.352s5.186 14.26-6.617 18.672c-6.416 2.567-16.038 1.617-17.499 11.191l9.182-.012c2.499-1.254 3.74-4.056 3.74-4.056 29.527-3.185 14.934-40.727 14.934-40.727z"/>
    <path fill="#6a6d70" d="M11.198 434.347h18.668v7.466H11.198zm0-11.198h18.668v7.466H11.198zm33.596 11.198H63.46v7.466H44.794zM0 445.55h74.666v11.194H0zm44.794-22.401H63.46v7.466H44.794zm-33.596-22.403h52.235v7.467H11.198zm52.262-11.203h3.74v-7.465H7.463v7.465h3.735v7.467h52.271l-.009-.019zm-21.482 22.404c1.722 1.37 2.813 3.47 2.813 5.836v1.627h18.666v-7.463H41.978zm-9.295 0H11.198v7.463h18.668v-1.627c-.001-2.366 1.104-4.466 2.817-5.836z"/>
</svg>

