<svg xmlns="http://www.w3.org/2000/svg" viewBox="0 0 150 150" width="150" height="150"><g fill="#acacac"><path d="M142.3 132.7c-4.1-1.6-7.2-3.8-9.2-6.7-.2-.2-.2-.5-.2-.8.1-.3.2-.5.4-.7 10.6-7.1 16.7-17.9 16.6-29.5.1-9.1-3.5-17.6-10.2-24.3-4.7-4.7-10.7-8.3-17.7-10.8v.6c.1 12.1-4.6 23.3-13.5 32.2-11.4 11.8-29.5 18.5-49.5 18.5h-.8l-3.5-.1c1.6 3 3.7 5.8 6.3 8.3 9.1 9.1 23.3 14.3 39.1 14.3h.7c7.5 0 14.7-1.2 21.3-3.5.3-.1.5-.1.8 0 6.6 3.1 13.8 4.8 17.3 4.8.9 0 1.7-.1 2.2-.3.4-.2.7-.5.7-1-.1-.4-.3-.8-.8-1zM105.2 31.9c-10.7-10.7-27.6-16.9-46.2-16.9h-.8c-18.7 0-35.5 6.2-46.2 16.9-8 8-12.1 17.9-12 28.7-.1 13.7 7 26.4 19.6 34.9.3.2.5.5.5.8.1.3 0 .7-.2.9-2.4 3.4-6 6-10.9 7.9-.5.2-.8.6-.8 1.2 0 .5.3 1 .8 1.2.7.2 1.5.4 2.6.4 4.2 0 12.6-1.9 20.5-5.6.3-.1.6-.2.9 0 7.8 2.7 16.2 4.1 25.1 4.1h.9c18.6 0 35.5-6.2 46.1-16.9 8-8 12.1-17.9 12-28.7.2-11-4-20.9-11.9-28.9zm-65.6 34.4c-2.8 0-5-2.2-5-5s2.2-5 5-5 5 2.2 5 5-2.2 5-5 5zm19 0c-2.8 0-5-2.2-5-5s2.2-5 5-5 5 2.2 5 5-2.3 5-5 5zm18.9 0c-2.8 0-5-2.2-5-5s2.2-5 5-5 5 2.2 5 5-2.2 5-5 5z"/></g></svg>