<?xml version="1.0" encoding="iso-8859-1"?>
<!-- Generator: Adobe Illustrator 19.0.0, SVG Export Plug-In . SVG Version: 6.00 Build 0)  -->
<svg version="1.1" id="Layer_1" xmlns="http://www.w3.org/2000/svg" xmlns:xlink="http://www.w3.org/1999/xlink" x="0px" y="0px"
	 viewBox="0 0 300.062 300.062" style="enable-background:new 0 0 300.062 300.062;" xml:space="preserve">
<g fill="#acacac">
	<g>
		<path d="M258.164,185.472c-0.031,0-0.061,0-0.093,0c-8.427,0-16.43,2.729-23.016,7.759v-43.249v-73.51c0-4.143-3.357-7.5-7.5-7.5
			c-3.977,0-75.722,0-77.905,0c18.402-13.327,31.48-31.248,31.508-45.871c0.035-18.301-21.382-28.91-36.699-19.747
			c-11.799,7.061-19.826,24.638-24.943,40.718c-5.118-16.08-13.144-33.657-24.943-40.718c-15.312-9.16-36.736,1.438-36.7,19.747
			c0.028,14.623,13.107,32.545,31.508,45.871c-2.299,0-73.949,0-77.905,0c-4.143,0-7.5,3.357-7.5,7.5v73.51v69.07v73.51
			c0,4.143,3.357,7.5,7.5,7.5c6.162,0,216.945,0,216.081,0c6.156-0.001,11.894-2.446,16.153-6.88
			c0.208-0.216,41.866-43.499,42.063-43.726C308.444,225.299,291.283,185.575,258.164,185.472z M161.555,83.971h58.5v58.51h-58.5
			V83.971z M152.165,16.224c2.463-1.474,4.756-1.691,7.432-0.751c5.791,2.036,6.566,4.983,6.562,7.599
			c-0.021,11.137-15.473,29.574-36.51,40.786C134.107,44.871,142.192,22.187,152.165,16.224z M72.873,23.071
			c-0.005-2.615,0.77-5.563,6.561-7.599c2.669-0.937,4.962-0.727,7.432,0.751c9.973,5.963,18.058,28.647,22.517,47.634
			C88.345,52.646,72.894,34.208,72.873,23.071z M18.975,83.972h58.5v58.51h-58.5V83.972z M77.475,285.062h-58.5v-58.51h58.5V285.062
			z M154.055,211.552c-4.143,0-7.5,3.357-7.5,7.5v66.01h-54.08v-66.01c0-4.143-3.358-7.5-7.5-7.5h-66v-54.07h66
			c4.142,0,7.5-3.357,7.5-7.5v-66.01c2.892,0,38.518,0,54.08,0v66.01c0,4.143,3.357,7.5,7.5,7.5h66v35.802
			c-20.656-15.749-50.736-6.746-59.059,18.268H154.055z M161.555,285.062v-47.929c3.582,9.184,5.244,9.685,42.034,47.929H161.555z
			 M274.675,239.359c-0.069,0.073-0.137,0.146-0.203,0.222l-41.575,43.205c-2.911,3.03-7.756,3.045-10.686-0.004
			c-47.204-49.069-40.816-42.423-41.763-43.423c-5.122-5.358-7.493-12.362-5.914-20.35c6.01-27.963,45.521-22.38,45.521,4.462
			c0,4.143,3.357,7.5,7.5,7.5s7.5-3.357,7.5-7.5c0-12.583,10.173-23,23.011-23c0.018,0,0.038,0,0.057,0
			C278.128,200.535,288.624,224.766,274.675,239.359z"/>
	</g>
</g>
</svg>
