<svg xmlns="http://www.w3.org/2000/svg" viewBox="0 0 150 150" width="150" height="150"><path fill="#acacac" fill-rule="evenodd" clip-rule="evenodd" d="M35.3 27.6c-4.2 0-7.7 3.4-7.7 7.7v72.7c0 4.2 3.4 7.7 7.7 7.7h23.7c4.2 0 7.7-3.4 7.7-7.7v-72.7c0-4.2-3.4-7.7-7.7-7.7h-23.7zm55.7 0c-4.2 0-7.7 3.4-7.7 7.7v40.7c0 4.2 3.4 7.7 7.7 7.7h23.7c4.2 0 7.7-3.4 7.7-7.7v-40.7c0-4.2-3.4-7.7-7.7-7.7h-23.7zm-64-16.6c-8.8 0-16 7.2-16 16v96c0 8.8 7.2 16 16 16h96c8.8 0 16-7.2 16-16v-96c0-8.8-7.2-16-16-16h-96z"/></svg>