<svg xmlns="http://www.w3.org/2000/svg" viewBox="0 0 150 150" width="150" height="150"><path fill="#acacac" d="M75 10c-35.9 0-65 29.1-65 65s29.1 65 65 65 65-29.1 65-65-29.1-65-65-65zm8.8 111.7c0 1.1-.9 2-2 2h-13.9c-1.1 0-2-.9-2-2v-13.4c0-1.1.9-2 2-2h13.8c1.1 0 2 .9 2 2v13.4zm11-43.9c-5.3 3.9-10.9 7.1-12 14.4v2.6c0 1.1-.9 2-2 2h-12.5c-1.1 0-2-.9-2-2v-3.5c.7-10.7 5.7-15.5 10.6-19.3 4.8-3.8 9-6.6 9-13.2 0-7.5-3.9-11-10.4-11-8.2 0-11.9 6.2-12.5 14-.1 1.1-1 1.9-2 1.9h-14.1c-1.2 0-2.1-1-2-2.2 1.2-16.5 12.5-29.5 29.7-29.5 23.2 0 30.5 15.6 30.5 25 0 12-5 16.8-10.3 20.8z"/></svg>