<svg xmlns="http://www.w3.org/2000/svg" viewBox="0 0 150 150" width="150" height="150"><path fill="#acacac" d="M100.6 23.7c-10.2-10.3-26.3-16.2-44.2-16.2h-.8c-17.8 0-33.9 5.9-44.2 16.2-7.5 7.6-11.5 17.1-11.4 27.4-.1 13.2 6.7 25.3 18.7 33.4.3.2.4.5.5.8.1.3 0 .6-.2.9-2.3 3.2-5.8 5.8-10.4 7.5-.5.2-.8.6-.8 1.1 0 .5.3.9.8 1.1.6.2 1.4.4 2.5.4 4 0 12.1-1.8 19.6-5.4.3-.1.6-.1.9 0 7.4 2.6 15.5 3.9 24 3.9h.8c17.8 0 33.9-5.9 44.2-16.2 7.6-7.6 11.6-17.1 11.5-27.5.1-10.3-3.9-19.8-11.5-27.4zm-39.2 54.4c0 .7-.6 1.3-1.3 1.3h-8.5c-.7 0-1.3-.6-1.3-1.3v-8.3c0-.7.6-1.3 1.3-1.3h8.5c.7 0 1.3.6 1.3 1.3v8.3zm6.8-26.9c-3.2 2.4-6.7 4.4-7.4 8.8v1.6c0 .7-.6 1.3-1.3 1.3h-7.7c-.7 0-1.3-.6-1.3-1.3v-2.1c.5-6.6 3.5-9.5 6.5-11.8 2.9-2.3 5.5-4.1 5.5-8.1 0-4.6-2.4-6.8-6.4-6.8-5 0-7.3 3.8-7.7 8.6-.1.7-.6 1.2-1.2 1.2h-8.5c-.7 0-1.3-.6-1.3-1.3.8-10.1 7.7-18.1 18.2-18.1 14.2 0 18.7 9.6 18.7 15.4.2 7.1-2.8 10.1-6.1 12.6zM143.5 140.5c-3.5-1.4-6.1-3.3-7.8-5.8-.1-.2-.2-.4-.1-.7 0-.2.2-.5.4-.6 9-6.2 14.1-15.5 14-25.6.1-7.9-2.9-14.3-8.6-20.2-7.5-7.7-19.2-11.3-32.3-11.5-1.5 2-3.1 4-5 5.8-9 9-22 14.8-36.7 16.8-1.1 3-1.6 6.2-1.6 9.6-.1 7.9 2.9 15.1 8.6 21 7.7 7.9 19.7 12.3 33.1 12.3h.6c6.4 0 12.4-1.2 18-3.2.2-.1.5-.1.7 0 5.6 2.7 11.7 4.1 14.7 4.1.8 0 1.4-.1 1.9-.3.3-.1.6-.5.6-.9.1-.3-.1-.7-.5-.8zm-31.5-11.2c0 .6-.5 1.1-1.1 1.1h-6c-.6 0-1.1-.5-1.1-1.1v-6.1c0-.6.5-1.1 1.1-1.1h6c.6 0 1.1.5 1.1 1.1v6.1zm-1.2-12.4c-.2.6-.7 1-1.4 1h-3c-.6 0-1.2-.4-1.4-1-1.5-5.1-3.7-17.7-2-27.7.1-.7.7-1.2 1.4-1.2h6.9c.7 0 1.3.5 1.4 1.2 1.9 9.9-.3 22.6-1.9 27.7z"/></svg>