<?xml version="1.0" encoding="UTF-8" standalone="no"?>
<svg
   xmlns:dc="http://purl.org/dc/elements/1.1/"
   xmlns:cc="http://creativecommons.org/ns#"
   xmlns:rdf="http://www.w3.org/1999/02/22-rdf-syntax-ns#"
   xmlns:svg="http://www.w3.org/2000/svg"
   xmlns="http://www.w3.org/2000/svg"
   xmlns:sodipodi="http://sodipodi.sourceforge.net/DTD/sodipodi-0.dtd"
   xmlns:inkscape="http://www.inkscape.org/namespaces/inkscape"
   viewBox="0 0 400 100"
   enable-background="new 0 0 400 100"
   width="400"
   height="100"
   version="1.1"
   id="svg10"
   sodipodi:docname="logo.svg"
   inkscape:version="0.92.1 r15371">
  <metadata
     id="metadata16">
    <rdf:RDF>
      <cc:Work
         rdf:about="">
        <dc:format>image/svg+xml</dc:format>
        <dc:type
           rdf:resource="http://purl.org/dc/dcmitype/StillImage" />
      </cc:Work>
    </rdf:RDF>
  </metadata>
  <defs
     id="defs14">
    <filter
       inkscape:label="Colorize"
       inkscape:menu="Color"
       inkscape:menu-tooltip="Light areas turn to black"
       style="color-interpolation-filters:sRGB;"
       id="filter3702">
      <feColorMatrix
         type="luminanceToAlpha"
         result="result2"
         id="feColorMatrix3694" />
      <feComposite
         in2="SourceGraphic"
         operator="arithmetic"
         in="result2"
         k3="2"
         result="result4"
         id="feComposite3696" />
      <feBlend
         in="result4"
         mode="multiply"
         result="result3"
         in2="result2"
         id="feBlend3698" />
      <feComposite
         in2="SourceGraphic"
         operator="in"
         in="result3"
         id="feComposite3700"
         result="fbSourceGraphic" />
      <feColorMatrix
         result="fbSourceGraphicAlpha"
         in="fbSourceGraphic"
         values="0 0 0 -1 0 0 0 0 -1 0 0 0 0 -1 0 0 0 0 1 0"
         id="feColorMatrix3704" />
      <feComposite
         in2="fbSourceGraphic"
         id="feComposite3706"
         operator="arithmetic"
         k1="1.8"
         k2="0"
         result="composite1"
         in="fbSourceGraphic" />
      <feColorMatrix
         id="feColorMatrix3708"
         in="composite1"
         values="1"
         type="saturate"
         result="colormatrix1" />
      <feFlood
         id="feFlood3710"
         flood-opacity="1"
         flood-color="rgb(0,0,0)"
         result="flood1" />
      <feBlend
         in2="colormatrix1"
         id="feBlend3712"
         in="flood1"
         mode="multiply"
         result="blend1" />
      <feBlend
         in2="blend1"
         id="feBlend3714"
         mode="screen"
         result="blend2" />
      <feColorMatrix
         id="feColorMatrix3716"
         in="blend2"
         values="1"
         type="saturate"
         result="colormatrix2" />
      <feComposite
         in2="fbSourceGraphic"
         id="feComposite3718"
         in="colormatrix2"
         operator="in"
         k2="1"
         result="composite2" />
    </filter>
  </defs>
  <sodipodi:namedview
     pagecolor="#ffffff"
     bordercolor="#666666"
     borderopacity="1"
     objecttolerance="10"
     gridtolerance="10"
     guidetolerance="10"
     inkscape:pageopacity="0"
     inkscape:pageshadow="2"
     inkscape:window-width="1920"
     inkscape:window-height="1137"
     id="namedview12"
     showgrid="false"
     inkscape:zoom="3.55"
     inkscape:cx="200"
     inkscape:cy="50"
     inkscape:window-x="-8"
     inkscape:window-y="-8"
     inkscape:window-maximized="1"
     inkscape:current-layer="svg10" />
  <g
     id="g4"
     fill="#DA0830"
     style="filter:url(#filter3702)">
    <path
       d="M27.6 53.5c-.4 0-.7.1-1 .4l-26.2 26.2c-.4.4-.5 1-.3 1.5s.7.9 1.3.9h10.2c.4 0 .7-.1 1-.4l18.2-18.2c.3-.3.6-.4 1-.4h23.5c.4 0 .7.1 1 .4l18.2 18.2c.3.3.6.4 1 .4h10.2c.6 0 1.1-.3 1.3-.9s.1-1.1-.3-1.5l-26.3-26.2c-.3-.3-.6-.4-1-.4h-31.8zM75.5 17.5c-.4 0-.7.1-1 .4l-18.2 18.2c-.3.3-.6.4-1 .4h-23.5c-.4 0-.7-.1-1-.4l-18.2-18.2c-.3-.3-.6-.4-1-.4h-10.2c-.6 0-1.1.3-1.3.9s-.1 1.1.3 1.5l26.2 26.2c.3.3.6.4 1 .4h31.8c.4 0 .7-.1 1-.4l26.2-26.2c.4-.4.5-1 .3-1.5s-.7-.9-1.3-.9h-10.1z"
       id="path2" />
  </g>
  <g
     fill="#111"
     id="g8">
    <path
       d="M224.3 63.9c0 .8.6 1.4 1.4 1.4h2.3c.8 0 1.4-.6 1.4-1.4v-23.6l24.8 24.7c.2.2.5.3.8.3h3.7c.8 0 1.4-.6 1.4-1.4v-27.8c0-.8-.6-1.4-1.4-1.4h-2.3c-.8 0-1.4.6-1.4 1.4v22.5l-23.5-23.5c-.3-.3-.6-.4-1-.4h-4.8c-.8 0-1.4.6-1.4 1.4v27.8zM346.9 63.9c0 .8.6 1.4 1.4 1.4h33c.8 0 1.4-.6 1.4-1.4v-27.8c0-.8-.6-1.4-1.4-1.4h-33c-.8 0-1.4.6-1.4 1.4v27.8zm5.1-24.1h25.5v20.4h-25.5v-20.4zM105 62.9c-.4.4-.5 1-.3 1.5s.8.9 1.3.9h3.4c.4 0 .8-.1 1-.4l11.8-11.5 11.8 11.5c.3.3.6.4 1 .4h3.4c.6 0 1.1-.3 1.3-.9s.1-1.1-.3-1.5l-13.6-13.1 13.6-13.1c.4-.4.5-1 .3-1.5s-.8-.9-1.3-.9h-3.4c-.4 0-.8.1-1 .4l-11.8 11.5-11.8-11.5c-.3-.3-.6-.4-1-.4h-3.4c-.6 0-1.1.3-1.3.9-.2.5-.1 1.1.3 1.5l13.6 13.1-13.6 13.1zM289.5 34.7c-.8 0-1.4.6-1.4 1.4v27.9c0 .8.6 1.4 1.4 1.4h2.3c.8 0 1.4-.6 1.4-1.4v-11.4h10.6l1.1 1.1 11.3 11.3c.3.3.6.4 1 .4h3.3c.6 0 1.1-.3 1.3-.9.2-.5.1-1.1-.3-1.5l-13-13 12.9-12.9c.4-.4.5-1 .3-1.5s-.7-.9-1.3-.9h-3.3c-.4 0-.7.1-1 .4l-12.4 12.4h-10.6v-11.4c0-.8-.6-1.4-1.4-1.4h-2.2zM165.6 34.7c-.8 0-1.4.6-1.4 1.4v2.3c0 .8.6 1.4 1.4 1.4h29.6c.8 0 1.4-.6 1.4-1.4v-2.3c0-.8-.6-1.4-1.4-1.4h-29.6zM169.4 52.6h22.4c.8 0 1.4-.6 1.4-1.4v-2.3c0-.8-.6-1.4-1.4-1.4h-26.2c-.8 0-1.4.6-1.4 1.4v15.1c0 .8.6 1.4 1.4 1.4h29.6c.8 0 1.4-.6 1.4-1.4v-2.3c0-.8-.6-1.4-1.4-1.4h-25.8v-7.7zM392.2 34.7v1.2h-1.6v4.6h-1.6v-4.6h-1.6v-1.2h4.8zm3.5 5.8l-1.5-4.4v4.4h-1.4v-5.8h2.5l1.1 3.3 1.2-3.3h2.5v5.8h-1.6v-4.4l-1.6 4.4h-1.2z"
       id="path6" />
  </g>
</svg>
